<svg viewBox="0 0 959 511" xmlns="http://www.w3.org/2000/svg"><path d="m280 185-5-7a863 863 0 011-100l6-8 5-3 23 1c39 0 56 1 60 3 5 1 10 4 13 9 2 4 2 5 0 6-2 0-2 1-2 3 0 3-2-1-11-3-8-2-10 5-7 35 4 29 7 30 19 31h4v12l-1 12c-1 0-4-7-3-9 0-2-3-1-15 5-10 5-21 7-31 4-9-2-15-6-14-8v-6c-3 0-8 6-8 8s0 2 7 7c8 4 9 5 9 6 2 2-2 3-6 4-5 1 5 4 11 4 6 1 3-3 3-5s7-1 16-2 8 1 7 3c-1 3 6 2 11-1 11-5 13-6 13-3 1 3-6 11-22 13-74-5-80-8-83-11zm248 20a2000 2000 0 01-2-92l-3 2c-3 3-11 4-21 2a291 291 0 00-43-2l-27-1h-6l-1-4 1-23v-24c0-5 0-5-6-5a314 314 0 01-36 1l2 4c0 3-3 3-7 1-3-3-19-3-66-4l-32-1-4 4c-7 6-7 6-7 64v51l3 4 1 5c-1 1-4-1-6-5s-2-6-2-57v-57l5-8c3-2 5-5 4-5l-7-1h-11c-4 0-4 1-1 7 2 4 2 6 2 56 0 53-1 58-4 65-2 4-7 5-14 5-8 0-10-1-2-2 5-1 7-3 5-5-2-1-2-4 0-5s5 0 5 2 3 2 3-1l2-102-3-12c-1-1-2 0-2 1l-3 2c-3 0-4-3-2-6 3-5 1-6-11-6l-18-1a628 628 0 00-63 2c2 1 2 5 0 6-1 2-2 2-3-1-2-5-4-3-5 5a4000 4000 0 002 110c1 0 2 0 2-2 0-3 2-5 4-4 2 2 2 3-1 7-3 3-6 4-6 2l-3-4c-3-4-3-4-4-63s1-58-2-59c-3-2-7-2-9-1s-2 2-1 37 1 37-5 34l-29-11c-23-10-26-11-27-13s0-5 3-5c4 0 5-1 5-20 0-18 0-18 2-22l5-4c2-1 54 0 299 5s246 4 249 12c3 5 3 5 3 25v20h7c4-4 5-4 6 5 2 6 11 11 92 51 82 39 84 38 111 29s27-12-61-80c-88-67-96-73-113-66s-24 12-30 18c-2 3-4 2-4-1-1-5-3-9-6-13-3-3-8-6-13-6l-225-5a6000 6000 0 00-253-5l-61-1c0-2 3-3 26-11l29-10 58-4a813 813 0 0090-8l93-1 189 2c44 1 92 7 123 28l97 75c88 69 91 71 130 78 40 6 44 9 44 9v56a2000 2000 0 01-5 102c-2 10-21 28-52 35-31 8-32 9-34 14-3 6-12 16-150 63s-143 47-149 47-13 1-261-30c-249-31-259-36-260-39l-14-52c-1-3-1-3-10-5l-13-4c-2 0-5-7-7-26l-3-29c-2-4 0-36 4-62 2-9 4-17 43-53 11-9 20-21 47-22 427 20 433 20 433 18zm87 256c29-27 30-28 30-34l-1-9c-1-2-6 2-12 8-14 16-29 30-44 44-6 5-8 9-6 14s4 4 33-23zm25-34c2 0-1 3-12 15s-22 23-34 33c-1-4 43-48 46-48zm10 44c6-4 18-19 17-19-1-1-5 2-10 8-8 8-11 9-10 4 0-6-2-6-8 1l-7 5 6-7c7-8 10-12 7-13-1-1-5 2-11 9a300 300 0 01-16 12c0-1 2-4 13-14 12-10 14-13 14-17s-2-2-22 18l-22 23c1 2 3 1 22-2 20-3 21-3 27-8zm-19-49c-1-1-9 5-31 26-18 18-22 22-21 24 2 2 4 1 52-50zm42 38c8-8 10-12 8-12-8 6-14 12-20 19 0 3 4 0 12-7zm-160 0-2-1-1 2 1 1zm74-4 18-21c-2-2-26 21-26 25s2 3 8-4zm99 1c10-8 20-18 15-16-6 2-16 13-22 20 0 2 1 1 7-4zm-205 2c2-1 2-3 0-3s-5 3-4 4zm10-1-1-1-2 2 1 1zm-19-1v-2c-1-1-5 1-5 2 0 2 4 2 5 0zm-10-1v-2c-1-1-6 1-5 2 1 2 4 2 5 0zm-9-1c1-1 1-2-1-2-2-1-7 1-6 2 1 2 5 1 7 0zm250-2c5-4 6-7 2-7-2 0-9 7-9 9s1 1 7-2zm-262 1c2-1 1-3-1-3-3 0-4 2-3 3 1 2 1 2 4 0zm-9-3-2-1c-1 0-4 3-3 4 1 0 5-1 5-3zm242-15c12-11 13-13 9-13-1 0-4 2-28 29l19-15zm-264 15c2-1 2-2 1-2-2-1-7 1-6 2 1 2 3 2 5 0zm310-4c4-4 6-7 4-7s-12 8-13 10c-1 3 3 2 9-3zm-320 3c1-1-1-3-3-2-3 1-3 3 0 3zm186-4c7-7 6-10-1-6-3 2-7 8-7 10 0 3 3 1 8-4zm-196 3c2-1 2-3-1-3s-5 2-4 3c1 2 2 2 5 0zm-20-2 1-1c0-2-5-2-6-1-1 2 1 4 2 3zm11 0c0-2-6-1-6 0l3 1zm319-28c-1-1-10 6-19 16l-10 13 16-13c11-10 15-15 13-16zm-353 27c2-1 2-4 1-4-2 0-4 2-4 3s1 2 3 1zm12-1c-1-2-3-1-3 0-1 1 0 1 1 1zm334-6c7-6 9-11 7-11-6 5-11 10-15 16-3 4 1 2 8-5zm42 3 3-4c-1-2-9 4-9 7 0 2 1 1 6-3zm-396 2c2-2-1-3-21-6s-25-1-26 1c-1 1 1 1 21 4s24 3 26 1zm325-9 10-10c0-2-6-2-14 8-12 13-9 14 4 2zm85 3c-1-1-3 1-3 2h2zm-463 1c2-1 3-1 2-2-2-1-6 0-6 2s0 2 4 0zm294 0h-2c-1 1 0 1 1 1zm-313-2 1-2-35-5c-18-2-24-1-23 1 0 1 1 2 26 5s30 2 31 1zm9 1v-2c-2-1-6 1-5 2zm493-7c6-4 11-9 16-15 0-5-21 11-23 17-1 3 1 3 7-2zm-113 0c3-2 3-4 1-4s-7 5-6 6c1 2 2 1 5-2zm-452 0c2-1 2-3-1-3-2 0-5 3-4 4s2 0 5-1zm-10-1c1-1 1-2-1-2l-30-4c-22-3-26-1-26 1l27 4c26 3 28 2 30 1zm432-13-9-12c-1-4-7-7-20-11s-13-5-12-31c1-13-1-26 4-39s11-16 35-19l29-4c3-2 3-4-10-2s-15-4-17-25-5-21-24 0-20 23-21 28c0 2-3 8-5 67s0 60 3 61c1 1 3 1 20-4zm136 13c2-1 2-1 0-4l-2-3c-3 0-5 7-2 8zm27-8 8-7-3-1c-2 0-4 2-8 6l-6 7c0 3 2 1 9-5zm-666 0c0-2-1-2-27-5s-32-2-32 1l27 4c26 4 32 2 32 0zm11 1c0-2-3-2-5-1l-1 2c1 2 6 0 6-1zm638-5c0-2-2-2-4-1s-3 4-2 6c1 1 6-4 6-5zm-209 3c1-2-1-3-2-2s-1 3 1 3zm-9-26-3-31-276-22s-268-18-267-16l3 34c0 6 1 11 2 11 1 1 14 3 273 25 260 22 262 23 266 22s4-1 2-23zm-49-1v-2c1-1 4 0 4 2s-3 2-4 0zm-91-1 1-1 1 1-1 1zm34-1 1-1 1 1c0 2-2 2-2 0zm69-1 2-1v1l-1 1zm14-2 2-1-1 1zm-131-5c-1-1 2-3 4-2v2c-2 2-3 2-4 0zm-39-6 1-1c1-1 2 0 1 1zm444 39c5-5 6-6 2-5-3 2-8 6-8 8s2 1 6-3zm-242-9c0-2-2-2-3 1s1 5 2 3c1-1 2-3 1-4zm262 1c0-2-3-1-5 2l-1 2 3-1zm-147-3 1-7c1-4 1-5-1-7l-1-4c0-2 0-2-2 0l-3 8c0 6 0 7 2 9 3 4 4 4 4 1zm173-20 35-38c0-4-5-1-20 15-18 18-30 29-31 28s16-19 52-54 37-36 37-34c1 1-6 8-18 20-19 19-24 25-16 20 10-7 19-15 27-24s12-13 13-12-4 7-38 41c-13 14-26 26-40 38-2 2-2 4 6 0s44-41 54-51c10-11 16-16 17-15 1 0-4 8-59 62 0 3 9-3 18-10 8-7 6-5 3-1-4 5-4 6 13 1 18-5 20-6 23-11 2-4 2-4-2-1s-6 2-2-2c8-8 13-17 10-17l-4 4c-2 3-8 7-8 5 20-21 20-22 20-27 2-49-11-43-65-29s-55 14-64 20c-4 3-7 6-9 10l-2 6c1 1 10-6 12-9l3-2s-1 4-4 7c-7 7-13 15-12 16s10-7 19-16c8-8 18-17 18-15l-17 19c-11 10-22 23-21 24s10-6 26-22c17-16 19-16 15-10-3 3-3 4-1 4l15-11 3-2-1 2-25 26c-23 22-33 34-31 35l14-12a1000 1000 0 0157-53l-72 78c5-3 14-11 41-40 28-28 43-42 44-41 0 1-2 4-45 48l-45 48c2 2 32-27 60-57l42-40c4-2-2 5-32 35-48 47-63 63-63 64 1 2 4 1 23-7 20-7 25-11 27-13zm13-37c41-43 48-48 47-44-2 4-83 84-86 86s-2 0 39-42zm45 14c0-2 7-9 8-9 0 1-1 3-4 5zm23-35c1 1-5 10-28 30-5 4-6 5 8-12s19-19 20-17zm-89-14c-1-1 1-4 4-5s4 0 3 2c0 2-6 5-7 3zm21-9c0-1 3-5 5-5 3 0 2 3-1 5-4 2-4 2-4 0zm64-8c1-1 1-2 2-1 2 0 1 2-1 2zm-88 108 1-2-5 3c0 2 1 2 4-1zm-277-6-1-2c-1-1-3 3-2 4 1 2 2 0 3-2zm-1-59c0-45 0-46-2-49-2-2-2-2-271-21s-274-19-275-18c-2 3-4 8-7 32l-3 31 274 22c264 22 272 22 275 24 4 1 5 3 5 6 0 14 2 24 3 22 2-2 2-3 1-49zm379 21c5-7 9-15 8-21l-1-4-5 5c-5 4-5 5-5 10l-2 9c-2 4-3 6-1 6zm-133-2c8-6 14-13 14-15 0-3-1-3-3-2l-18 20c0 2 2 1 7-3zm25-25c3-4 3-6 1-6-1 0-7 7-7 9 0 3 3 1 6-3zm-187-9c12-5 14-6 12-9s-9-3-17 0c-3 2-8 3-10 3l-6 2c-3 2-3 5-1 6l5 2c4 2 3 2 17-4zm-640-3-1-2-1 3 1 2zm748 0c5-2 3-4-3-3h-10c-4 2-3 4 2 3h6l1 1zm-20-2c0-1-2-2-4-1l-1 2c1 1 5 1 5-1zm32 1 1-2c-1-1-5 1-5 2s2 2 4 0zm37-1c3-2 3-4 0-4-2-1-7 3-6 4 1 2 2 2 6 0zm-190-5c2-1 2-4 1-4s-7 7-7 9l2-2zm165 4c1-2 0-2-2 0-2 1-2 1 0 1zm12 0v-1c-1-1-3 0-3 1 0 2 1 2 3 0zm-89-2h-1l-1 1h1zm-10-1c1-1 0-2-1-1l-2 1 1 1zm26-13c6-4 7-5 10-4 2 0 3 0 6-3l4-4-18 5c-4 2-12 9-12 12 0 2-1 2 10-6zm-42 2c5 0 8-1 9-2 3-3 1-4-10-2-12 2-11 2-11 0l3-4c6-4 2-5-5-1l-3 4 3 4c2 3 3 3 5 3zm270-110c-6-5-9-4-41 21-31 25-33 30-35 28s0-3 6-28c7-26 6-29 3-29l-8 28c-7 27-8 28-25 33-17 6-21 8-21 11 0 2-2 3-4 5-3 3-7 5-10 6l-1-2v-2c-2 0-13 7-20 13-2 0-2-1 0-2 2-4-3-3-9 3s-12 9-13 8 0-2 3-5c4-3 6-5 4-5s-9 5-14 10c-5 4-10 6-12 4-1-1-3-1-4 1s-1 3 1 4c3 3 4 15 105-37s102-60 95-65zm-117 66c5-4 6-4 6-2 0 1-8 6-10 6zm-220-24c-8-5-9-5-27 21s-18 28-16 32c3 3 6 3 29-22 23-24 22-26 14-31zm73 54h-1c-2 1-2 1 0 1zm16-2c4-3 3-4 0-3-3 0-5 2-5 3 0 2 3 1 5 0zm56-1c2-1 2-2 1-2l-4 2c-4 3-1 3 3 0zm83-4c7-7 5-7-2 0l-4 5zm15-3 9-9c0-2-3 0-11 7s-10 10-7 10zm23-10c17-15 16-13 11-7s-5 7-2 7c4 0 4 2 0 6-7 7-5 9 25 2s38-12 41-16c2-3 2-5 1-27s-2-24-29-6c-21 14-20 16-23 16-2-1-4 0-17 12-10 8-19 18-27 28 0 3 3 1 20-15zm15-3 4-4c2 0 2 1 1 3s-5 3-5 1zm8-8 7-7c2 0 2 2-1 5s-6 4-6 2zm35-1 1-1 1 1-1 1zm-21-1 1-1 1 1-1 1zm-200 27c2-1 2-3 1-3l-3 2c-3 2-2 3 2 1zm160-1 9-8c0-2-7 1-11 4-5 6-4 8 2 4zm-145-2c6-3 4-5-3-2-3 1-5 4-2 4zm14-3 4-3-1-2-8 5c0 2 1 1 5 0zm21-7c0-2-4-2-8 0-3 2-4 3-3 5 1 1 11-4 11-5zm-188-18 19-21h-4l-19-2-6-1c-3-1-4-1-6 1h-5c-2-2-2-2-6 0a304 304 0 01-22 22c-14 14-17 17-15 17s8-4 21-18c14-14 23-22 23-19l-7 9-10 11c-5 6-1 5 6-2 10-10 18-16 18-15 1 2-3 7-16 19l-11 13c0 3 3 1 13-9 11-12 22-21 23-20l-15 17c-14 14-15 17-14 17 2 0 8-5 19-16 12-11 17-15 17-13-6 8-12 15-20 21-2 3-5 5-6 9 0 3 3 0 23-20zm199 16 7-1c2 1 11-3 12-5 2-2-2-2-7 1l-8 2c-3-1-11 3-11 4 0 2 2 2 7-1zm-247-1c3-3 7-8 6-9-1-2-12 8-12 10s2 1 6-1zm-7-16a654 654 0 0121-23c-2-1-6 1-9 5l-32 34h1l18-16zm345 15c1-1 0-2-1 0v1zm-379-4c4-4 5-6 2-6-2 0-9 8-9 9 0 3 3 1 7-3zm21-10 19-18c6-5 7-8 4-8s-8 5-22 20-19 19-16 19zm-27 4 6-7c-1-1-12 8-14 12s1 3 8-5zm323 5c3-1 4-2 3-3s-10 3-9 4c1 2 1 2 6-1zm-330-10c7-7 14-15 22-21 4-3 5-4 3-5s-6 2-19 15a97 97 0 00-18 22c0 2 2 0 12-11zm-20-1a820 820 0 0123-27c-2 1-37 36-37 38s4-1 14-11zm18-7 18-18c0-4-4-1-21 16s-19 19-16 19zm-30 7c9-9 11-12 9-12s-20 18-20 20c0 3 2 1 11-8zm380 6v-2l-4 1c-4 2-4 2-3 3s6 0 8-2zm-376-36c-2 0-6 4-21 20-16 15-18 18-15 18l22-21c16-15 17-17 14-17zm-32 23c-6 3-12 8-16 14 0 2 3 0 10-7zm464 12c-1-1-3 0-3 1h2zm-478-9 8-9c-7 5-14 11-19 18 0 2 2 0 12-9zm241 7c3-3 3-4 2-4-2 0-5 4-5 6s1 2 4-2zm-254-5c5-5 7-9 4-7-5 3-9 7-12 12 0 3 2 2 8-5zm45 1c5-6 7-8 5-8-5 4-10 8-13 13 0 3 2 1 8-5zm89-24c-3 0-6 3-16 14-11 12-13 15-12 15l16-14c13-13 15-15 12-15zm-156 22c7-6 7-9 0-4-5 4-7 7-7 9s1 1 7-5zm11 1c8-7 7-10 0-4l-7 7c-3 5 2 3 7-3zm-23 1 8-11c-5 4-10 8-13 13zm-20-4c6-6 5-7-1-2-5 5-7 7-5 7 1 0 4-2 6-5zm9 3 5-5c3-4 0-4-5 1-6 6-6 9 0 4zm-21-2c3-2 3-4 2-4-2 0-6 5-6 6 0 2 1 1 4-2zm325-7 10-11-2-2c-2 0-4 2-9 8l-9 10c-4 3-4 5-1 5zm-336 7c3-2 4-5 1-4-4 2-7 6-5 6zm-33-1c4-3 7-7 6-8l-10 9c0 2 1 1 4-1zm25-3c3-2 5-5 4-5l-10 10zm-12 1 1-2c-1-1-4 2-4 4 0 1 2 0 3-2zm342-1 13-14c2 0 5-3 5-4s-1-2-3-1c-2 0-3 0-3 3-1 3-1 3-4 2l-2-1 2-3c3-4 3-7 1-7-7 5-14 11-19 18-1 3 0 4 3 4 3-1 4 1 1 3v2c1 2 3 1 6-2zm-130-6c9-9 10-11 8-11-7 5-13 11-19 18-1 3 1 2 11-7zm156 2c5-5 5-8 1-6-3 2-11 10-10 11 1 2 3 0 9-5zm-412 4c3-2 7-7 6-8l-8 7c-2 3-1 3 2 1zm25-3c3-3 4-5 3-5l-8 8c0 2 2 1 5-3zm-43-2 4-5c-1-1-10 8-10 9 0 2 1 1 6-4zm10 2c4-4 5-6 2-5l-7 8zm22 0 2-3-7 6zm-53-4c3-4 3-4 0-2-7 6-10 9-5 7zm460 3c-1-1-3 1-3 3l2-1zm-483-2 4-5c-2-1-10 7-10 9s2 0 6-4zm12-1c2-1 3-3 2-3 0-1-8 6-8 8 0 1 3-1 6-5zm-24 2c4-3 6-6 5-7l-8 7c-2 3-1 3 3 0zm46-2 3-4-8 6c-1 4 1 3 5-2zm-99-2c5-4 6-7 2-5l-9 9c0 3 3 1 7-4zm332-3c6-7 8-10 3-7-5 4-10 9-13 14 0 2 2 0 10-7zm-343-8 14-16-9 7c-22 21-24 24-22 24zm10-1c-6 5-12 10-16 16l8-6zm15 9c0-1-2-1-5 3-5 4-4 5 1 1zm6 6 7-9c-2 0-10 8-10 9 0 2 0 2 3 0zm12-2c4-3 4-6 0-3l-4 6c2 0 3-1 4-3zm285-15c-2 0-7 5-13 13-5 6-5 6 5-3 10-8 11-10 8-10zm-349 1 14-15c-1-2-33 29-32 30 1 2 3 0 18-15zm11 1 16-17a311 311 0 00-34 32c0 2 4-2 18-15zm312 5c6-6 7-7 5-7-3-1-7 3-14 12-4 5-4 5-2 4zm-343-11c-18 16-19 18-19 19 0 2 3 0 12-10zm5 9c11-11 14-15 10-13-9 7-17 15-24 23 0 3 4 0 14-10zm93 9 1-3-5 4c0 2 1 1 4-1zm541 1v-2l-3 3zm-348-2c3-4 2-6-1-2l-3 3c0 2 2 1 4-1zm27-5c9-8 11-10 7-10-2 0-6 4-13 13-5 6-3 5 6-3zm34 0c6-5 8-7 7-8-2-2-6 1-11 8-7 10-6 10 4 0zm44 2c6-5 7-7 4-7l-12 10c-2 4 3 2 8-3zm-140 3c1-2 0-2-1 0l-1 1zm55-9 5-6c-2-1-5 1-11 8-9 11-6 10 6-1zm26-6c-2 0-16 17-16 17l11-9c7-6 8-8 5-8zm-44-2c-3 1-11 9-16 18l3-2c12-10 16-13 13-16zm342 13c3-4 5-7 3-7s-10 8-9 9c1 2 2 2 6-2zm-8-3c2-2 2-5 0-5s-5 4-4 6 1 2 4-1zm-350-2c9-6 10-7 8-9s-8 2-12 10c-2 3-1 3 4-1zm379-5 9-10c0-2-5 0-11 7l-8 11zm-352 2c4-5-1-5-5 0-4 4-4 6 0 4zm-28-6c0-3-3-2-7 2-4 3-9 10-4 7zm-46-2c-1-1-7 4-9 8-2 2-2 3 6-4zm7 6c5-5 6-8 1-4l-7 8zm386-1c5-5 6-7 2-6-3 2-9 8-9 10 0 3 2 1 7-4zm40 4c1-1 0-2-1 0l-1 1zm-465-9c0-3-5 1-9 5l-2 4zm6 5c3-2 5-5 4-6l-4 3c-5 4-7 7-6 7zm11 0c5-4 6-6 3-6l-8 9c0 2 0 2 5-3zm45 1 4-5c-2-1-5 1-7 4-4 6-3 6 3 1zm-75-5c4-4 1-4-3 1-1 1-3 2-3 4 0 1 3-1 6-5zm429 3 15-16c3-2 3-5 1-5s-8 6-15 12c-8 6-9 8-8 10s4 2 7-1zm-466-1 1-2-2 2-1 2zm28-4v-2c-2 0-7 6-7 7 0 2 6-3 7-5zm76 3c0-1-2-1-3 1-2 1-2 3 1 1zm386 0c4-4 5-7 2-7l-8 9c-1 3 2 1 6-2zm12-2 12-11c5-5 10-11 8-11s-12 9-15 13c-5 4-8 9-11 14l7-5zm-587-1 5-6-12 11zm45 0 3-4c-2-1-7 4-8 7-2 3 0 2 5-3zm54 2 1-3-2 3-2 2zm456-16c-2 0-12 7-13 9l-3 2c-2 0-1-3 7-11s4-8-4-2c-5 5-7 6-7 5l13-15c13-13 15-15 12-16-2-1-16 13-17 15 0 2-2 3-4 4l-3 3c0 3-4 6-7 6s-2-3 3-7l4-4c0-2-3-3-6-2-4 3-3-1 3-6 3-2 8-10 8-12l-5 1c-2 2-4 2-2-1l1-4c-1-2-4-1-5 1l-2 1c-2 0-4 4-4 8 0 3 1 3 3 0l3-2c2 0 0 5-2 6-4 1-6 9-6 20 1 11 9 16 13 18 3 2 6 2 13-6 8-8 8-11 7-11zm57 13c5-5 7-8 5-8l-11 10c-2 5 0 4 6-2zm-547 2-3 3 7-6c1-3-2-1-4 3zm-31-2c4-3 5-5 2-4l-6 7zm57-1c0-1-3 1-3 3l2-1zm-33 1v-2l-3 2c0 2 1 1 3 0zm-32-2 1-3c0-1-5 3-5 5zm55 0h-1l-1 1h1zm436-41c0-33 0-35-4-38-3-3-7 0-7 35 1 35 1 40 6 42 5 1 4-5 5-39zm52 40c1-2 0-3-1-2-2 2-2 3 0 3zm-66-1-1-4c-1-1-2-2-1-5l-1-5c-2-1-2-2 0-5s1-5-1-5l-2 4c-2 3-2 4-1 5 2 2 1 4-5 6s-9 4-38 4-31-1-38-3-11 0-10 3c0 3 1 4 14 4l42 1zm129-5c8-7 8-8 8-9 1-4-5 0-12 9l-4 6zm-47 2v-3c-1-1-3 1-3 3 0 3 2 3 3 0zm23-1c1-1 0-2-1-2l-2 3c-1 1 0 1 1 1zm-31-2 13-11c9-8 13-15 13-16-1-2-4 0-19 14s-12 16-7 13zm68-1 2-3c-1-1-5 2-5 4s1 2 4-1zm-16-5c4-4 5-6 4-7-2-1-12 8-12 10 1 3 2 3 8-3zm-38 3-1-2-1 3zm-103-65c-1-59-2-61-3-62-1-2-2-3-10-3-9 0-11-1-10-3 1-1 17-1 21-3s-20-2-44-1-26 2-28 3l-1 4 2 9c0 5-1 7-2 9-2 2-2 5-4 25-1 21 0 23 3 24s4 2 4 8c1 6 0 8-1 9-1 2-2 4-1 15v25c15 3 28 2 40 2h34c2-1 1-2 0-61zm-22 35c-1-2 1-5 3-4s2 3 0 4h-2zm-1-12c0-2 2-3 3-2s0 3-2 3zm-5-48c-1-2 0-5 1-5 2 0 3 3 1 5zm12-13c-1-3 1-5 3-3 1 1 1 2-1 3-1 2-1 1-2 0zm-1-10-1-7c0-4 0-6 3-4 1 2 3 2 6 2 4 0 4 0 2 5 1 7-9 6-10 4zm-49-1c-1-1-1-8 1-11 1-4 5-3 5 0 0 7-3 13-6 11zm30-5-4-1c-3 0-4-2-3-3h12c2 2 2 2 0 3-3 2-3 3-5 1zm2-12c0-3 4-3 4-1l-2 2c-2 0-3 0-2-1zm165 127c4-3 5-6 2-6s-6 4-6 6 1 2 4 0zm-34-11c10-10 12-14 9-14-2 0-8 5-16 13-8 9-8 12-6 12zm-18 6c5-5 5-5 3-6s-9 6-9 8c0 3 2 3 6-2zm36-2c7-6 10-11 7-11s-17 14-16 16 1 2 9-5zm-46 0 4-4c0-2-1-2-5 1s-5 4-4 5c1 2 1 2 5-2zm60-2v-5c-2 0-7 5-6 6 1 2 4 1 5-1zm8 1v-1l-2 1v1zm-81-7 2-4 3-3 11-9c6-6 6-9 4-9-3 0-11 8-11 10 1 2-1 4-4 4-2 0-12 10-12 13l2 1zm-43-4v-3c-1-1-4 2-4 4 0 3 3 2 4-1zm70-2 8-6c2-2 2-5 0-6l-5 4c-5 5-8 4-3-2 3-3 3-6 1-6l-4 3c-3 2-4 3-3 7l-1 7c-2 2-1 4 1 4zm8 3 2-2c2 0 7-5 7-7l-2-2c-2 0-9 9-9 11s1 2 2 0zm-77-13c1-2 0-5-1-5l-3 7c1 1 3 0 4-2zm27-2c1-2 3-5 5-5l6-6c1 0 1 3-1 4-3 2-3 6-1 6 3 0 13-10 12-12 0-1-1-2-2-1-5 2-6 2-6-1s0-3-3-2c-3 0-4 0-4-2 0-3 0-3-3-2-3 0-3 0-4-2 0-2-1-3-2-3-2 1-3 5-3 15s0 14 2 14l3-3zm-1-10 5-5-2 4c-2 2-4 3-4 1zm19 12 4-3c6-3 8-10 4-10-2 0-8 6-8 9 1 1 0 2-1 3-3 1-3 2-1 2zm-46-10c2-3 2-4 1-5-2-2-3 0-4 5-1 4 1 5 3 0zm-295 1c2-2 2-2-9-6l-10-4c-2 0-2 1-2 3s5 5 12 7 9 0 9 0zm295-24c2-17-1-18-3-15-2 2-2 6-2 18 0 11 0 12 2 12 1 1 2 1 3-15zm-288 7c3-2 4-5 2-9v-10c0-9 2-17 5-25 1-5 2-7 1-8-1-3-2-3-13-3s-11 0-16 3c-5 4-7 6-9 25-3 19-2 20 0 24l2 4h13zm-8-8c-2-3-2-3-1-11s3-17 5-17c1 0 2 5 1 18s-3 14-5 10zm159-21c0-2-3-2-3 0l1 1zm36-2v-25c0-22 0-22-2-21l-24 2c-1 0-2 4-2 23l1 23 18 1c7 1 8 0 9-3zm-17-14c-3-2-7-9-5-16s9-6 12-4 3 3 0 6c-2 2-2 4 0 5 2 0 2 1 2 4 0 4 0 4-2 5zm10-11 2-2 2 1-2 2c-1 1-1 0-1-1zm-38 15c3-1 3-2 1-4s-8 2-6 5c1 1 2 0 5-1zm11 0 1-2c-2-1-7 0-7 2s4 2 6 0zm165-64c2-4 2-4-9 0-11 3-15 8-5 7 10 0 12-3 14-7zm-24 1v-2c-1-1-3 0-3 2s1 2 3 0zm-29-4c4-4 5-6 2-6-2 0-9 7-8 8 1 2 1 2 6-2zm20 2c2-1 2-4 1-4-2 0-5 3-5 4 0 2 1 1 4 0zm-30-4c5-4 6-7 3-7l-10 10c0 2 3 1 7-3zm21 2 1-3c-1-1-6 2-6 4-1 2 2 2 5-1zm-66-2c5-4 6-7 3-7-2 0-9 8-9 9 0 2 2 1 6-2zm11 0c5-4 6-7 4-7s-9 7-9 9 1 2 5-2zm12 0c5-4 6-7 3-7-2 0-9 7-9 9s2 1 6-2zm12-1c7-7 6-9-1-4-6 5-8 8-5 8zm-68-1c4-3 6-6 4-6-3 0-10 7-10 10 0 1 3 0 6-4zm12 0c5-4 6-6 3-6-2 0-8 6-9 8-2 4 1 3 6-2zm12 0 3-5c-1-1-8 4-9 6-3 5 0 4 6-1zm-56-1c4-4 6-8 3-6-4 2-7 5-8 7-4 5-1 4 5-1zm10 1 5-5c1-3-2-2-7 2-6 6-4 9 2 3zm13-2c2-1 3-3 2-3-1-1-6 2-7 4-3 5 0 5 5-1zm-88-2c4-4 4-5 1-4-2 0-9 8-9 9 0 2 5-1 9-5zm7 4c7-5 8-8 5-8l-6 4c-5 7-5 8 1 4zm13-1c5-4 6-7 3-7-2 0-9 7-9 9s2 1 6-2zm12 0c3-4 5-7 3-7s-9 7-9 9 1 1 6-2zm11 0c5-5 5-8 1-5-4 2-7 6-7 7 0 2 2 1 6-2zm11-1 3-4c-1-1-7 3-8 5-3 5 0 4 5-1zm-66-1 3-5c-1-1-7 3-9 6-2 5 0 4 6-1zm-68 0c4-4 5-6 1-5-3 2-6 5-6 7s0 2 5-2zm24-2c6-5 4-7-3-2-4 4-5 8-2 6zm33 1c5-5 3-7-2-2-4 3-5 7-2 5zm-91 0c4-3 4-5 2-5l-6 7c0 2 0 1 4-2zm13 0c4-4 5-7 2-6-2 0-8 7-8 9s2 0 6-3zm11-1c3-3 4-4 3-5s-2 0-6 5c-3 5-1 4 3 0zm24-2c-1-1-5 1-7 4-2 2-2 2 3 0s5-4 4-4zm20 4c4-4 5-6 2-6-2 0-7 5-7 7s2 1 5-1zm11 0c3-3 5-6 3-6s-7 5-7 7 1 2 4-1zm-158-1 1-2-4 3c0 1 1 1 3-1zm12 0 2-3c-1-1-6 2-6 4-1 2 2 1 4-1zm10-2c-3 2-4 4-2 4l3-4c2-3 1-2-1 0zm13 1c4-3 4-5 3-5-2 0-7 5-7 7s1 2 4-2zm11 1 2-3c-2-1-6 2-6 4s1 2 4-1zm12-1c4-3 4-5 2-5s-7 6-7 7c0 2 1 1 5-2zm11 0c4-3 4-5 2-5s-7 6-7 7c0 2 2 1 5-2zm-81 0h-1l-1 1c0 2 2 1 2-1zm262 176c-19-1-25-2-26-3l-1-31-1-30-8-1c-11-1-12 0-12 13l-1 19a259 259 0 011 25c0 7-2 8-4 3-1-4-2-8-2-26 1-35 0-33 3-36 3-2 4-3 10-2l8 1c3 1 9 2 17 1l40 1 11 4c2-1 3-1 12 2l-1 21c1 14-2 27-4 29-1 1-2 1-9-3s-7-6-8-28c0-12-1-17-2-18l-21-1-19 1v22c0 28 0 27 18 26h21c2 2 2 2-3 4l-5 2c1 2 17 2 22 0h5l3 1c3 0 3 3 1 4zm-65-10-3-2c-2 0-2 0-1-1l2-2c1 0 6 5 5 6s-2 0-3-1zm-193 0-4-1c-5-1-2-3 6-3 6 0 9 1 9 2l1 2zm-18-3 1-1c2-1 6 0 6 1 1 2-6 2-7 0zm-44-2c-4-2-3-3 2-3s6 1 4 3c-1 1-3 2-6 0zm36 0 3-1 2 1-3 1zm-66-30c-1-26-1-28 2-28 1 0 2 1 2 3 2 12 2 25 2 37 0 13-1 16-4 16zm265 25c0-3 2-6 5-7 2-1 3 2 1 3l-2 4c0 2-1 3-2 3-2 0-2 0-2-3zm-169 1c-2-1-2-3 1-5 2-2 4-1 4 2s-2 4-5 3zm9 0c-1-3 1-5 4-6 2 0 2 0 1 3 0 3 0 4-2 4zm-18-1c-2-2-1-5 2-5 2 0 2 0 2 3s-2 4-4 2zm269 0c-1-2 4-9 8-11 6-4 6 0 1 6s-8 7-9 5zm-288-1c-3-2-2-6 2-6 2 0 2 0 2 3 0 4-1 5-4 3zm9 0c-2-1-2-2-1-4 2-3 5-4 6 0v4c-2 2-2 2-5 0zm-47-2c-1-3 0-5 2-5 2-1 3 0 2 3 0 3-3 5-4 2zm9 1c-1-1-1-6 1-7 1-1 4 1 5 3 1 3-4 6-6 4zm9-1v-4c1-3 2-3 5-1 2 2 3 2 4 1 3-1 5 0 6 2 1 3-1 4-5 3l-4-1c-1 2-4 2-6 0zm64-5c-2-2-2-6 0-8l2-4c1-4 5-5 6-1 1 3-1 5-3 5s-3 2-1 5v4c-2 2-3 2-4-1zm-10-1c-2-2-1-6 1-6 1-1 2 0 3 2v4c-2 2-3 2-4 0zm-39-2c-2-2 0-7 2-6 3 0 4 3 2 5-2 3-3 3-4 1zm-10-1v-3c0-3 5-3 5 0 1 3-4 6-5 3zm33 1c-4-1-4-1-4-3s1-3 5-2h4l4 1c2 1 2 1 0 3l-3 1zm-61-3c-2-3-1-6 2-5 3 0 4 3 3 5-2 3-3 3-5 0zm10 2c-1-1-1-6 1-7 1-1 4 2 3 5 0 2-2 3-4 2zm9-1v-3c2-2 5-1 4 2 0 2-2 3-4 1zm28-1c0-1 2-4 4-4s3 4 1 5c-3 2-5 2-5-1zm208 0 1-1 1 1-1 1zm73-5c0-5 3-10 4-8 2 1-1 11-3 11zm-248-1c0-3 2-5 4-4s2 3-1 5-3 2-3-1zm-29-1c-2-2 0-5 3-5 2 0 3 2 0 5l-2 3zm-27 0c-1-3 0-5 2-5 3-1 4 2 2 4-2 3-3 3-4 1zm36 0c-1-2 1-5 3-5s3 3 2 5c-2 2-4 2-5 0zm10-1c0-1 1-3 3-3 2-1 3-2 3-4l1-4c1-1 2-1 3 1 2 1 2 2-1 4l-3 4-5 4zm-65-1c-2-2 0-6 2-5 3 0 3 4 1 5zm9 0c-1-3 0-5 3-4l2 2-2 3zm-19-2c-1-2 2-6 4-4 1 2 0 6-2 6-1 0-2 0-2-2zm38 1c0-2 2-4 4-3v3c-2 2-4 2-4 0zm9 0 1-2 1-1c2 0 2 4-1 4-1 1-2 0-1-1zm192-28c0-10-1-17-3-22s-1-7 0-7c3 0 5 5 5 9 0 5 1 6 4 2v-12l1-12c2-4 4-2 4 18v23c3 0 3 2-1 8s-3 7-1 6c3-1 4 1 2 4l1 5c1 2 0 4-6-1s-6-6-6-21zm-148 23c0-3 2-4 4-2 2 1 2 2 0 3-3 2-4 2-4-1zm-20 0c-2-1 1-6 3-6s2 4 0 6zm-10-1c-1-3 3-7 5-5 1 1 0 2-1 3-2 3-3 3-4 2zm-35-2c-2-1-2-4 0-5l3 1c1 2 2 2 3 0l4-2c2 0 3 4 2 5-1 2-4 2-5 0-1-1-2-1-3 1-2 2-3 2-4 0zm16 0c0-3 3-6 5-5 1 1 1 5-1 6-3 1-4 0-4-1zm10-1c0-3 5-4 5-1 0 2-2 3-5 3zm-47 0 1-3c2-2 5-1 4 2 0 2-4 3-5 1zm10 0 1-3h3c2 2 1 4-1 4zm71-4c-2-2-1-6 1-6 1-1 2 0 2 1v4c-2 2-2 2-3 1zm9 1v-4l-4-10c0-1 0-3 2-4l2-4c0-3 2-4 4-1s2 4-2 6c-2 1-3 1-2 4l2 6c2 2 2 8 0 8zm-19-3c0-3 2-5 4-4v3c-2 3-4 3-4 1zm-19-2c0-3 2-5 4-4s2 3 0 5c-3 2-4 2-4-1zm10-1c0-4 3-4 3 0 0 2 0 3-2 3-1 1-2 0-1-3zm-66 2c-1-1-1-6 1-7l3 1c2 2 2 3 1 4-1 2-4 3-5 2zm10-1c-2-5 1-8 4-4 1 2 2 2 3 0l4-2c2 0 3 5 2 6-1 2-4 2-5 0h-3c-3 2-4 2-5 0zm36-1c0-3 3-4 5-3 1 1 1 2-1 3-2 3-5 3-4 0zm-19-1c0-2 3-4 5-3 1 1 1 3-1 4-3 2-4 2-4-1zm9 1c0-2 2-4 4-4s2 4 0 5c-3 1-4 1-4-1zm35-5c-2-1-1-6 1-6 3 0 4 4 2 6l-3 1zm10 1-1-4c0-4 3-4 3 0 1 3 0 5-2 3zm-49-4c0-4 2-6 4-5s2 3-1 5c-3 3-3 3-3 0zm20 2c-1-1-1-4 1-5l3 1 1 3c-1 1-4 2-5 1zm9-1v-3c1-2 3-2 4 0s-1 4-2 4zm-19-3c0-4 1-4 4-2 2 2 2 3 1 4l-4 1zm-38 2c-1-2 0-5 1-7 2-1 2-1 3 1 2 2 2 4 0 5-1 1-3 2-4 1zm10-1c-1-2 0-5 2-4l2 2c0 3-3 4-4 2zm9-2c-1-1 2-3 4-2 1 1 1 3-1 3zm62-2c-2-2-1-5 2-5 2 0 2 0 2 3s-2 4-4 2zm-10-1c-1-3 0-6 2-6s4 4 3 6-4 2-5 0zm147 0-1-4v-3c-2-1-2-15-1-17h3c2 0 2 5 3 17 0 7 0 8-2 8zm-156 0v-4c0-2 0-3 2-3s3 4 2 6c-2 1-3 2-4 1zm-10-2c-1-3 0-5 2-5 2-1 3 0 3 2 0 3-4 6-5 3zm-10-1c-1-2 1-6 2-6 4 0 4 5 1 6zm-27-1c-2-1-2-4 0-5h3c1 0 2 1 1 3 0 3-2 4-4 2zm19 0c-2-1-1-6 1-6l2 3c1 2-1 4-3 3zm-38-1v-4c0-2 5-2 5 0 1 4-4 7-5 4zm10-1c0-3 2-5 4-3s2 2 1 4c-2 2-5 2-5-1zm18 0c0-3 1-5 3-3s1 5-1 5-2 0-2-2zm53-3c-2-2-1-6 1-6s3 5 2 6zm9 0c-1-3 0-6 1-6 1-1 5 3 5 5 0 3-5 3-6 1zm-19-2c-3-4 0-7 3-4 2 2 2 3 1 4-1 2-3 3-4 0zm-10 0c-1-3 0-5 3-6 2 0 2 0 2 3-1 4-4 6-5 3zm-9-2 2-4c1 0 2 1 1 3 0 2-1 3-2 3zm-47 0c-3-4 0-9 3-6 2 2 2 5 0 6zm27 1c-1-2 0-6 2-7 4-2 5 2 2 6-2 1-3 2-4 1zm10-1c-1-3 0-5 3-5s3 2 1 5c-2 2-3 2-4 0zm-28-2c-1-4 1-6 4-3 2 2 2 5-1 5-2 0-3-1-3-2zm9 0c-1-3 2-6 4-4 1 1 0 5-2 5zm53-5c-3-2-2-5 1-5 1 0 2 1 2 3 1 3-1 5-3 2zm8 1v-3l-2-4c-3-3-3-7 0-8l3 4 2 4 2 3v4c-2 1-4 2-5 0zm10 0v-3l-2-4c-3-1-3-6 0-7 2 0 7 11 6 14 0 1-2 2-4 1zm-48-3c-1-3 0-5 3-5 2 0 3 4 2 6-2 2-4 2-5-1zm10 2c-1-2 0-5 1-6 2-1 4 3 3 5-1 1-3 2-4 1zm10 0v-3c0-2 0-3 1-2l2 2c0 3-1 4-3 3zm-48-3c-1-2 0-5 2-5 3 0 4 2 3 4-1 3-4 3-5 1zm10 0c-1-2 1-5 3-4s2 5-1 5zm-28-3c0-2 1-3 2-3 2 0 2 1 2 3s0 3-2 3-3 0-2-3zm10 0c0-3 1-5 3-2s2 5-1 5c-2 0-2 0-2-3zm27 2v-2c2-1 5 0 4 2 0 1-3 2-4 0zm33-5c-1-1 0-6 2-6s4 4 2 6c-1 2-3 2-4 0zm-9-1c-2-2-1-4 1-5s4 1 3 3c0 3-3 4-4 2zm-18-1-1-3c0-3 4-3 4 0 1 2-1 5-3 3zm9 0v-3c1-2 4-1 4 1l-2 2zm-20-2c-1-2 1-5 3-5s3 5 2 6c-1 2-4 1-5-1zm-28 0c-1-3 1-5 3-5 3 0 3 6 0 6zm10 0c-1-1 0-3 1-3 2-2 5-1 4 2 0 2-4 3-5 1zm10-1c-1-3 1-4 3-2 2 1 2 1 0 2-2 2-3 1-3 0zm466-3c-1-3 1-6 3-4l1 4c0 3-3 3-4 0zm-405-1c-3-3-1-9 3-6 2 2 2 7 0 8zm10 0c-2-2-2-5 1-6 2 0 3 1 3 3 1 2 0 5-1 5zm-29 0v-7c1-1 3 2 3 4 0 3-1 4-3 3zm10-2c-2-2-1-5 1-5 1 0 4 5 3 6-1 2-3 1-4-1zm-20 1c-1-2-1-5 1-5 2-1 5 2 4 4-1 1-4 2-5 1zm-37-2c-1-1-3-2-5-1-4 0-6-1-5-4 1-2 2-2 4-1h5c4-2 6 0 5 3 0 4-1 5-4 3zm19 1c-1-2 0-5 1-7 2-1 2-3 2-5 0-3 2-4 4-2 3 2 3 4 0 6l-3 4c-1 3-3 5-4 4zm8-1c-1-2 1-5 3-5s3 1 2 3c0 2-1 3-2 3zm-18-3c0-3 0-3 2-3s2 0 2 3c0 2-1 3-2 3-2 0-3 0-2-3zm-28 0v-3c2-2 5 1 4 4-1 2-3 2-4-1zm243-1c-1-2 0-4 3-4 1 0 2 1 1 3 0 3-3 4-4 1zm-153-2c-1-3 0-6 3-7 2 0 2 0 2 3 0 4-4 7-5 4zm-38-2c-1-1-1-6 1-6 1-1 2 1 2 4s-1 4-3 2zm9-1c-2-2-2-3 0-5 2-1 5 2 4 4 0 3-2 4-4 1zm9 1c-1-3 0-5 2-6 2 0 4 5 3 6-1 2-5 1-5 0zm10 1c-1-2 0-6 2-7s2-1 1 3c0 3-1 5-3 4zm-75-3c-1 0-2-2-1-3 0-3 0-3 2-3s3 0 3 2c1 2-1 5-2 5zm9 0c-1-3 0-5 2-6 3 0 4 3 2 5-2 3-3 3-4 1zm10 0c-1-3 0-5 2-5 3 0 4 3 2 5-1 2-3 2-4 0zm8 0c-1-1 0-3 1-3 2-3 5-1 4 2 0 2-4 3-5 1zm206-2 2-2c2 1 2 3 0 3zm-163-4v-4c2-3 3-3 5-2 2 2 2 4 0 6s-3 2-5 0zm9 1v-7h3c3 1 3 7 0 7zm-46-3c-1-3-1-7 1-7l3 2c2 2 2 2 4 0s4-1 5 2c1 4-1 5-4 3-2-2-3-2-4 0-3 2-4 2-5 0zm18 1c-1-2-1-5 1-7 2-1 5 1 4 5-1 2-3 3-5 2zm9-2c0-3 3-5 4-4v3c0 3 0 3-2 3-1 0-2 0-2-2zm-37-1c-1-4 1-6 3-4 3 2 3 6 0 6-2 0-3 0-3-2zm-18 1v-4c0-2 0-3 2-3 1 0 2 1 1 4 0 3-1 4-3 3zm8-2c-1-4 1-6 3-4 3 2 3 6 0 6-2 0-3 0-3-2z" fill="#141414"/></svg>